<?xml version="1.0" encoding="UTF-8"?>
<!DOCTYPE svg PUBLIC "-//W3C//DTD SVG 1.1//EN" "http://www.w3.org/Graphics/SVG/1.1/DTD/svg11.dtd">
<svg xmlns="http://www.w3.org/2000/svg" version="1.1" width="786px" height="786px" style="shape-rendering:geometricPrecision; text-rendering:geometricPrecision; image-rendering:optimizeQuality; fill-rule:evenodd; clip-rule:evenodd" xmlns:xlink="http://www.w3.org/1999/xlink">
<g><path style="opacity:1" fill="#559841" d="M 390.5,15.5 C 391.499,87.3314 391.833,159.331 391.5,231.5C 391.167,231.5 390.833,231.5 390.5,231.5C 339.322,210.405 288.322,189.072 237.5,167.5C 287.861,116.138 338.861,65.4718 390.5,15.5 Z"/></g>
<g><path style="opacity:1" fill="#c3dbab" d="M 390.5,15.5 C 391.251,14.4265 392.251,14.2599 393.5,15C 405.369,26.7015 417.035,38.5349 428.5,50.5C 428.369,51.2389 428.536,51.9056 429,52.5C 539.396,162.395 649.229,272.729 758.5,383.5C 635.929,333.204 513.595,282.538 391.5,231.5C 391.833,159.331 391.499,87.3314 390.5,15.5 Z"/></g>
<g><path style="opacity:1" fill="#63a643" d="M 237.5,167.5 C 288.322,189.072 339.322,210.405 390.5,231.5C 390.5,283.5 390.5,335.5 390.5,387.5C 390.5,387.833 390.5,388.167 390.5,388.5C 390.167,388.5 389.833,388.5 389.5,388.5C 265.329,388.908 141.329,388.241 17.5,386.5C 38.5,364.833 59.8333,343.5 81.5,322.5C 84.9895,321.687 87.6562,319.687 89.5,316.5C 135.169,271.833 179.836,226.833 223.5,181.5C 227.833,176.5 232.5,171.833 237.5,167.5 Z"/></g>
<g><path style="opacity:0.655" fill="#f9fbf8" d="M 428.5,50.5 C 541.132,161.965 653.632,273.632 766,385.5C 766.216,472.334 765.716,559.001 764.5,645.5C 764.5,586.5 764.5,527.5 764.5,468.5C 764.831,441.661 764.498,414.995 763.5,388.5C 766.1,387.031 765.767,386.031 762.5,385.5C 762.167,385.5 761.833,385.5 761.5,385.5C 760.5,384.833 759.5,384.167 758.5,383.5C 649.229,272.729 539.396,162.395 429,52.5C 428.536,51.9056 428.369,51.2389 428.5,50.5 Z"/></g>
<g><path style="opacity:1" fill="#99c774" d="M 390.5,231.5 C 390.833,231.5 391.167,231.5 391.5,231.5C 513.595,282.538 635.929,333.204 758.5,383.5C 759.5,384.167 760.5,384.833 761.5,385.5C 686.833,386.167 612.167,386.833 537.5,387.5C 488.5,387.5 439.5,387.5 390.5,387.5C 390.5,335.5 390.5,283.5 390.5,231.5 Z"/></g>
<g><path style="opacity:0.76" fill="#589a42" d="M 223.5,181.5 C 179.836,226.833 135.169,271.833 89.5,316.5C 88.8333,316.5 88.5,316.167 88.5,315.5C 133.5,270.833 178.5,226.167 223.5,181.5 Z"/></g>
<g><path style="opacity:0.8" fill="#93bb3a" d="M 88.5,315.5 C 88.5,316.167 88.8333,316.5 89.5,316.5C 87.6562,319.687 84.9895,321.687 81.5,322.5C 83.5,319.833 85.8333,317.5 88.5,315.5 Z"/></g>
<g><path style="opacity:1" fill="#a5cd85" d="M 761.5,385.5 C 761.833,385.5 762.167,385.5 762.5,385.5C 696.508,387.497 630.175,388.163 563.5,387.5C 554.833,387.5 546.167,387.5 537.5,387.5C 612.167,386.833 686.833,386.167 761.5,385.5 Z"/></g>
<g><path style="opacity:0.999" fill="#6db643" d="M 17.5,386.5 C 141.329,388.241 265.329,388.908 389.5,388.5C 265.86,511.806 142.194,635.14 18.5,758.5C 17.8333,697.5 17.1667,636.5 16.5,575.5C 16.1676,512.331 16.5009,449.331 17.5,386.5 Z"/></g>
<g><path style="opacity:1" fill="#acc497" d="M 390.5,388.5 C 390.5,388.167 390.5,387.833 390.5,387.5C 439.5,387.5 488.5,387.5 537.5,387.5C 546.167,387.5 554.833,387.5 563.5,387.5C 563.5,387.833 563.5,388.167 563.5,388.5C 506.331,388.168 449.331,388.501 392.5,389.5C 391.833,389.167 391.167,388.833 390.5,388.5 Z"/></g>
<g><path style="opacity:1" fill="#c3dbab" d="M 762.5,385.5 C 765.767,386.031 766.1,387.031 763.5,388.5C 696.833,388.5 630.167,388.5 563.5,388.5C 563.5,388.167 563.5,387.833 563.5,387.5C 630.175,388.163 696.508,387.497 762.5,385.5 Z"/></g>
<g><path style="opacity:1" fill="#377137" d="M 563.5,388.5 C 630.167,388.5 696.833,388.5 763.5,388.5C 764.498,414.995 764.831,441.661 764.5,468.5C 763.833,566.167 763.167,663.833 762.5,761.5C 638.806,637.806 515.472,513.806 392.5,389.5C 449.331,388.501 506.331,388.168 563.5,388.5 Z"/></g>
<g><path style="opacity:1" fill="#579943" d="M 389.5,388.5 C 389.833,388.5 390.167,388.5 390.5,388.5C 385.507,422.792 380.84,457.125 376.5,491.5C 257.167,581.167 137.833,670.833 18.5,760.5C 18.5,759.833 18.5,759.167 18.5,758.5C 142.194,635.14 265.86,511.806 389.5,388.5 Z"/></g>
<g><path style="opacity:1" fill="#1c3c1d" d="M 390.5,388.5 C 391.167,388.833 391.833,389.167 392.5,389.5C 515.472,513.806 638.806,637.806 762.5,761.5C 633.475,671.99 504.809,581.99 376.5,491.5C 380.84,457.125 385.507,422.792 390.5,388.5 Z"/></g>
<g><path style="opacity:0.925" fill="#a0cc7d" d="M 16.5,575.5 C 17.1667,636.5 17.8333,697.5 18.5,758.5C 18.5,759.167 18.5,759.833 18.5,760.5C 17.8501,760.804 17.1835,761.137 16.5,761.5C 16.1667,749.667 15.8333,737.833 15.5,726C 16.2942,675.836 16.6275,625.67 16.5,575.5 Z"/></g>
<g><path style="opacity:0.969" fill="#829c74" d="M 764.5,468.5 C 764.5,527.5 764.5,586.5 764.5,645.5C 764.833,684.506 764.5,723.506 763.5,762.5C 762.893,762.376 762.56,762.043 762.5,761.5C 763.167,663.833 763.833,566.167 764.5,468.5 Z"/></g>
<g><path style="opacity:0.956" fill="#424342" d="M 503.5,785.5 C 498.833,785.5 494.167,785.5 489.5,785.5C 489.5,781.5 489.5,777.5 489.5,773.5C 494.167,773.5 498.833,773.5 503.5,773.5C 503.5,777.5 503.5,781.5 503.5,785.5 Z"/></g>
</svg>
