<svg id="svg" version="1.1" xmlns="http://www.w3.org/2000/svg" viewBox="0 0 225 224" style="display: block;"><path d="M0 0 C74.25 0 148.5 0 225 0 C225 73.92 225 147.84 225 224 C150.75 224 76.5 224 0 224 C0 150.08 0 76.16 0 0 Z " transform="translate(0,0)" style="fill: #000000;"/><path d="M0 0 C74.25 0 148.5 0 225 0 C225 73.92 225 147.84 225 224 C150.75 224 76.5 224 0 224 C0 150.08 0 76.16 0 0 Z M41.07421875 45.625 C39.79478532 46.97186314 39.79478532 46.97186314 40 49 C39.34 49 38.68 49 38 49 C19.83507514 71.27145574 14.2619287 96.8302094 16 125 C18.12529254 144.00161393 26.62333807 160.55903258 38.75 175.125 C39.22203857 175.69420166 39.69407715 176.26340332 40.18041992 176.84985352 C42.41092588 179.45416948 43.686909 180.89563633 47 182 C47 182.66 47 183.32 47 184 C69.14145594 203.14414095 94.30241958 209.00693265 123 208 C147.55468553 206.12149947 170.69680597 192.3974811 186.56640625 174.00390625 C190.16437213 169.56275736 193.2035346 164.98010336 196 160 C196.52207031 159.07832031 197.04414063 158.15664062 197.58203125 157.20703125 C209.86326174 134.16806469 211.98326022 108.05463354 204.67285156 83.09960938 C201.11973775 72.01224406 195.79692629 62.4219461 189 53 C188.34 52.01 187.68 51.02 187 50 C186.34 50 185.68 50 185 50 C184.73832031 49.41605469 184.47664062 48.83210938 184.20703125 48.23046875 C176.25135145 33.52919637 154.26539134 23.29554429 138.875 18.625 C103.03025816 9.41941857 67.11657387 19.39347523 41.07421875 45.625 Z " transform="translate(0,0)" style="fill: #9C0059;"/><path d="M0 0 C5.05033231 5.45728057 7.63464159 11.57865734 8 19 C7.63460954 26.42199362 5.04992797 32.5414679 0 38 C-4.90173971 41.91615859 -10.10957384 44.14208037 -16.0625 46 C-25.83306157 49.09401116 -31.20651722 53.3779606 -36.58984375 62.12109375 C-40.27278117 69.63999923 -40.16959942 76.30365914 -39.921875 84.44140625 C-39.74007647 94.33427652 -41.28449961 102.4175094 -48 110 C-54.86686778 115.45195551 -61.31435763 116.88870829 -70 116 C-74.08452725 114.59406974 -77.42323608 112.38450928 -81 110 C-81 109.34 -81 108.68 -81 108 C-81.66 108 -82.32 108 -83 108 C-84.47265625 105.98828125 -84.47265625 105.98828125 -86.0625 103.3125 C-86.58972656 102.44238281 -87.11695312 101.57226562 -87.66015625 100.67578125 C-90.51639884 94.97162331 -90.90236414 88.66693198 -89.38671875 82.5078125 C-86.85445321 75.16758903 -82.55089354 70.33080042 -75.57128906 66.75610352 C-73.02811532 65.69595435 -70.4717705 64.73324396 -67.875 63.8125 C-56.85450638 59.92615361 -56.85450638 59.92615361 -48.8125 51.75 C-48.34457031 51.04359375 -47.87664062 50.3371875 -47.39453125 49.609375 C-42.94831796 41.28984985 -42.56868548 34.40863152 -42.5 25.0625 C-42.36102719 6.21183115 -42.36102719 6.21183115 -37.1328125 -0.33984375 C-30.1280523 -5.91367045 -30.1280523 -5.91367045 -26 -7 C-24.6696875 -7.37125 -24.6696875 -7.37125 -23.3125 -7.75 C-14.51889186 -8.41366854 -6.82671257 -5.49668064 0 0 Z " transform="translate(152,58)" style="fill: #9C005A;"/><path d="M0 0 C0.33 0 0.66 0 1 0 C1 34.98 1 69.96 1 106 C-32.66 106 -66.32 106 -101 106 C-101 105.67 -101 105.34 -101 105 C-100.175 104.91363281 -99.35 104.82726562 -98.5 104.73828125 C-76.17668182 102.02260973 -52.64239582 93.10283331 -36.73046875 76.6953125 C-34 74 -34 74 -32 74 C-32 73.34 -32 72.68 -32 72 C-30.87758529 70.87758529 -29.75161431 69.75861109 -28.61328125 68.65234375 C-10.93638442 50.54743489 -1.66741224 24.95368658 0 0 Z " transform="translate(224,118)" style="fill: #000000;"/><path d="M0 0 C32.67 0 65.34 0 99 0 C99 34.65 99 69.3 99 105 C98.67 105 98.34 105 98 105 C97.84144531 103.8140625 97.68289062 102.628125 97.51953125 101.40625 C93.92721829 75.90480474 84.47141892 48.72269485 64.125 31.5 C60.03209059 28.02975955 60.03209059 28.02975955 58.38671875 26.50390625 C42.57229993 12.02370639 21.05717155 3.67202745 0 1 C0 0.67 0 0.34 0 0 Z " transform="translate(126,0)" style="fill: #000000;"/><path d="M0 0 C0.33 0 0.66 0 1 0 C1.15855469 0.98097656 1.31710938 1.96195312 1.48046875 2.97265625 C6.56331352 33.00048147 21.26220324 59.82184644 46.3125 77.75 C63.23289444 88.84961818 80.69655345 96.07895612 101 98 C101 98.33 101 98.66 101 99 C67.67 99 34.34 99 0 99 C0 66.33 0 33.66 0 0 Z " transform="translate(0,125)" style="fill: #000000;"/><path d="M0 0 C32.67 0 65.34 0 99 0 C99 0.33 99 0.66 99 1 C97.43765625 1.22042969 97.43765625 1.22042969 95.84375 1.4453125 C85.29313222 3.05005886 75.78802985 5.76196595 66 10 C64.95199219 10.45246094 63.90398438 10.90492187 62.82421875 11.37109375 C37.67255858 23.13074413 18.59395822 44.49602651 8 70 C4.74919019 79.08789041 2.15367816 88.40761977 1 98 C0.67 98 0.34 98 0 98 C0 65.66 0 33.32 0 0 Z " transform="translate(0,0)" style="fill: #000000;"/><path d="M0 0 C5.36995337 3.57996891 8.9431319 7.81203818 11 14 C12.24928515 22.57591988 11.85589412 29.78294527 6.77734375 36.9765625 C2.12214551 42.27632665 -3.17938047 45.46345844 -10.28125 46.25390625 C-17.98039546 46.62222957 -23.48094552 44.34603632 -29.8125 40.125 C-35.88007808 34.23078129 -37.45501927 28.27088396 -38 20 C-37.75115596 12.53467877 -34.173738 7.20503077 -29 2 C-20.51275182 -4.41848143 -9.32890458 -4.97675903 0 0 Z " transform="translate(161,118)" style="fill: #9C005A;"/><path d="M0 0 C5.30078543 3.05103347 10.23497782 8.22393393 12.15234375 14.1171875 C13.4495084 21.41199514 12.80993519 27.34941279 9.21484375 33.890625 C5.74247307 38.52843503 0.95347746 41.34753876 -4.484375 43.16015625 C-11.54705931 43.93781644 -17.48039182 43.0862791 -23.484375 39.16015625 C-28.18426397 34.91314737 -31.07933208 30.49003542 -31.85546875 24.109375 C-32.0053775 16.74621002 -31.53139761 11.72110544 -26.484375 6.16015625 C-19.15014948 -1.15531166 -10.07462949 -3.40573167 0 0 Z " transform="translate(83.484375,64.83984375)" style="fill: #9A0054;"/><path d="M0 0 C4.0726702 3.2807621 6.36374936 5.97634626 7.25 11.1875 C7.61170496 16.234546 6.23251048 18.78208044 3.25 22.8125 C0.42318648 25.84122877 -2.55457622 26.50428163 -6.66015625 26.87890625 C-11.25987155 26.73274707 -14.68769213 24.70707505 -18.125 21.8125 C-21.0668646 18.19174357 -21.0928291 14.57248865 -21.02734375 10.09765625 C-20.58767775 6.47505607 -19.16791641 4.48493392 -16.75 1.8125 C-11.44510523 -1.80447371 -5.98802609 -2.58573854 0 0 Z " transform="translate(80.75,73.1875)" style="fill: #000000;"/></svg>