<svg width="50" height="78" viewBox="0 0 50 78" fill="none" xmlns="http://www.w3.org/2000/svg">
<path d="M28.5 77.5H27L26.8791 25.9142C26.6344 25.3609 25.8659 24.2544 24.75 24.2544C23.35 24.2544 22.6667 25.4528 22.5 26.0519V35C22.0608 35 21.5576 35.0359 21 35.1151V25.6887C21.1327 24.8467 21.7831 23.3332 23.3551 22.7481C23.7574 22.5983 24.2201 22.5094 24.75 22.5081C27.35 22.5145 28.3333 24.3624 28.5 25.2855V77.5Z" fill="white"/>
<path d="M31.5 77.5H30V24.7609C29.9037 23.3444 28.7189 20.5289 24.75 20.5992C20.7521 20.5992 19.5842 23.75 19.5 25.3254V35.4069C19.0921 35.5062 18.6655 35.6254 18.2226 35.7664C18.1522 35.789 18.0784 35.813 18 35.8386V24.9622C18.1667 22.7975 19.75 18.7784 24.75 18.9911C29.75 18.9608 31.3333 22.4753 31.5 24.2364V77.5Z" fill="white"/>
<path d="M34.5 77.5H33.25V23.6245C32.7251 21.5153 30.2902 17.297 24.75 17.297C18.3901 17.297 16.6 22.1649 16.5 24.5989V36.3967C16.4176 36.431 16.3404 36.4634 16.2668 36.4945C15.8534 36.6704 15.4306 36.8641 15 37.0767L15.0776 24.2544C15.1427 21.2656 17.1684 15.3304 24.75 15.5C31.75 15.5 34.1667 20.6249 34.5 23.1873V77.5Z" fill="white"/>
<path d="M36 77.5H37.5V22.1383C36.8333 18.9255 33.35 12.5 24.75 12.5C14.95 12.5 12.1971 19.8468 12.0456 23.5202L12 23.9597V38.8083C12.5061 38.4728 13.0068 38.1636 13.5 37.8792V24.3226V23.8724C13.6484 20.5816 16.1062 14 24.75 14C32.55 14 35.5 19.7752 36 22.6628V77.5Z" fill="white"/>
<path d="M40.5 77.5H39V21.6138C38.1467 18.0758 34.1021 11 24.75 11C14.55 11 11.0608 19.112 10.5912 23.168V23.4763L10.5 39.871C9.89275 40.3389 9.56369 40.6046 9 41.0777V23.5V22.7826C9.66667 18.3525 13.75 9.49304 24.75 9.49614C34.55 9.49305 39.3333 17.2236 40.5 21.0892V77.5Z" fill="white"/>
<path d="M43.5 77.5H42V20.5647C40.4848 16.3778 34.9135 8.00411 24.75 8.00411C12.7443 8.00411 8.24763 17.6143 7.5 22.4194V22.871V42.4418C7.19827 42.7368 6.9648 42.9683 6.73479 43.204C6.64637 43.2948 6.558 43.3865 6.46968 43.4792C6.32581 43.6304 6.17409 43.7927 6 43.9814V22.5081V22.0561C6.5 16.8776 10.95 6.51856 24.75 6.51032C35.35 6.51856 41.6667 15.5336 43.5 20.0402V77.5Z" fill="white"/>
<path d="M46.5 77.5H45V19.5C42.9696 14.5956 36.0771 4.8323 24.75 5.01487C9.88855 5.02675 5.05773 16.1385 4.5 21.6929V22.1452V45.7198C3.89156 46.489 3.56296 46.9192 3 47.6881L3.21238 21.7823V21.381C3.80825 15.4207 8.95 3.5 24.75 3.5C37.35 3.5 44.5 13.8274 46.5 18.9911V19.029V77.5Z" fill="white"/>
<path d="M49.5 77.5H48V18.4855V18.4666C46.1667 12.9777 38.95 2 24.75 2C8.15 2 2.48156 14.6801 1.72235 21.0202V21.4194L1.5 49.9284C0.884029 50.9276 0.561846 51.4916 0 52.5V20.552C1 13.7013 7.35 0.0999828 24.75 0.499996C40.411 0.499996 47.7754 12.128 49.5 17.942V77.5Z" fill="white"/>
<path d="M23 77.5V61.4231C23.321 60.9487 24.2625 60 25.4609 60L25.4316 58.5C22.977 58.5 21.7878 60.2179 21.5 61.0769V77.5H23Z" fill="white"/>
<path d="M20 60.7308V77.5L18.5 77.5L18.3143 60.3417C18.6249 58.7278 20.4715 55.5 25.3731 55.5L25.3926 57C23.7617 56.9872 20.4 57.7154 20 60.7308Z" fill="white"/>
<path d="M15.5 77.5H17L16.9071 60.017C17.1199 58.0113 19.105 54 25.3438 54L25.3145 52.5C17.5661 52.5 15.543 57.2949 15.5 59.6923V77.5Z" fill="white"/>
<path d="M14 59.3461V77.5L12.5 77.5V59C13.0039 55.6667 16.2606 49.1 25.2559 49.5L25.2852 51C21.8568 50.8974 14.8 52.4231 14 59.3461Z" fill="white"/>
<path d="M9.5 77.5H11V58.6538C11.4844 55.1026 15.0079 48 25.2266 48L25.1973 46.5C13.7551 46.5 9.96487 54.3718 9.5 58.3077V77.5Z" fill="white"/>
<path d="M6.5 77.5L8 77.5V57.9615C8.44534 53.641 12.5024 45 25.168 45L25.1387 43.5C11.6497 43.1149 7.09248 52.7498 6.5 57.6154V77.5Z" fill="white"/>
<path d="M3.5 77.5L5 77.5V57.2692C5.90628 51.8461 11.197 41.2 25.1094 42L25.0801 40.5C9.94424 40.0379 4.38676 51.2562 3.5 56.9231V77.5Z" fill="white"/>
<path d="M0.500001 77.5L2 77.5V56.5769C3.20056 50.5513 9.49151 38.6 25.0508 39L25.02 37.4226C9.03606 37.0572 2.01336 49.8091 0.500001 56.2308V77.5Z" fill="white"/>
</svg>
