<?xml version="1.0" encoding="UTF-8"?>
<svg version="1.1" xmlns="http://www.w3.org/2000/svg" width="225" height="224">
<path d="M0 0 C1.34132739 1.0944417 2.67511495 2.19821036 4 3.3125 C4.69222656 3.87195313 5.38445312 4.43140625 6.09765625 5.0078125 C7.77674702 6.38980769 9.39550535 7.84455809 11 9.3125 C11 9.9725 11 10.6325 11 11.3125 C11.99 11.6425 12.98 11.9725 14 12.3125 C15.83428955 14.33644146 17.52062265 16.34490629 19.1875 18.5 C19.67436279 19.127854 20.16122559 19.75570801 20.6628418 20.40258789 C39.09799364 44.6848791 46.96239985 74.6676499 43.12036133 104.87719727 C39.59674974 128.50299898 28.83586456 149.58697766 13 167.3125 C12.34 167.3125 11.68 167.3125 11 167.3125 C11 167.9725 11 168.6325 11 169.3125 C-5.84633228 187.72836635 -33.40669581 199.59048363 -58 201.3125 C-91.58144557 202.70794082 -121.43561961 194.1855898 -146.3828125 171.2421875 C-153.6773686 164.32762199 -159.79105428 156.94433184 -165 148.3125 C-165.57210205 147.37760742 -165.57210205 147.37760742 -166.15576172 146.42382812 C-180.67582458 122.25765339 -185.78444271 91.16942468 -178.9609375 63.625 C-178.48527344 61.9853125 -178.48527344 61.9853125 -178 60.3125 C-177.68289062 59.136875 -177.36578125 57.96125 -177.0390625 56.75 C-172.4384198 41.349267 -164.80212328 27.20744509 -154 15.3125 C-153.0408253 14.10483444 -152.08240659 12.89656776 -151.125 11.6875 C-113.52796252 -31.45664137 -43.88104577 -33.46483794 0 0 Z M-139.92578125 22.9375 C-141.20521468 24.28436314 -141.20521468 24.28436314 -141 26.3125 C-141.66 26.3125 -142.32 26.3125 -143 26.3125 C-161.16492486 48.58395574 -166.7380713 74.1427094 -165 102.3125 C-162.87470746 121.31411393 -154.37666193 137.87153258 -142.25 152.4375 C-141.77796143 153.00670166 -141.30592285 153.57590332 -140.81958008 154.16235352 C-138.58907412 156.76666948 -137.313091 158.20813633 -134 159.3125 C-134 159.9725 -134 160.6325 -134 161.3125 C-111.85854406 180.45664095 -86.69758042 186.31943265 -58 185.3125 C-33.44531447 183.43399947 -10.30319403 169.7099811 5.56640625 151.31640625 C9.16437213 146.87525736 12.2035346 142.29260336 15 137.3125 C15.52207031 136.39082031 16.04414063 135.46914062 16.58203125 134.51953125 C28.86326174 111.48056469 30.98326022 85.36713354 23.67285156 60.41210938 C20.11973775 49.32474406 14.79692629 39.7344461 8 30.3125 C7.34 29.3225 6.68 28.3325 6 27.3125 C5.34 27.3125 4.68 27.3125 4 27.3125 C3.73832031 26.72855469 3.47664062 26.14460938 3.20703125 25.54296875 C-4.74864855 10.84169637 -26.73460866 0.60804429 -42.125 -4.0625 C-77.96974184 -13.26808143 -113.88342613 -3.29402477 -139.92578125 22.9375 Z " fill="#9C0059" transform="translate(181,22.6875)"/>
<path d="M0 0 C5.05033231 5.45728057 7.63464159 11.57865734 8 19 C7.63460954 26.42199362 5.04992797 32.5414679 0 38 C-4.90173971 41.91615859 -10.10957384 44.14208037 -16.0625 46 C-25.83306157 49.09401116 -31.20651722 53.3779606 -36.58984375 62.12109375 C-40.27278117 69.63999923 -40.16959942 76.30365914 -39.921875 84.44140625 C-39.74007647 94.33427652 -41.28449961 102.4175094 -48 110 C-54.86686778 115.45195551 -61.31435763 116.88870829 -70 116 C-74.08452725 114.59406974 -77.42323608 112.38450928 -81 110 C-81 109.34 -81 108.68 -81 108 C-81.66 108 -82.32 108 -83 108 C-84.47265625 105.98828125 -84.47265625 105.98828125 -86.0625 103.3125 C-86.58972656 102.44238281 -87.11695312 101.57226562 -87.66015625 100.67578125 C-90.51639884 94.97162331 -90.90236414 88.66693198 -89.38671875 82.5078125 C-86.85445321 75.16758903 -82.55089354 70.33080042 -75.57128906 66.75610352 C-73.02811532 65.69595435 -70.4717705 64.73324396 -67.875 63.8125 C-56.85450638 59.92615361 -56.85450638 59.92615361 -48.8125 51.75 C-48.34457031 51.04359375 -47.87664062 50.3371875 -47.39453125 49.609375 C-42.94831796 41.28984985 -42.56868548 34.40863152 -42.5 25.0625 C-42.36102719 6.21183115 -42.36102719 6.21183115 -37.1328125 -0.33984375 C-30.1280523 -5.91367045 -30.1280523 -5.91367045 -26 -7 C-24.6696875 -7.37125 -24.6696875 -7.37125 -23.3125 -7.75 C-14.51889186 -8.41366854 -6.82671257 -5.49668064 0 0 Z " fill="#9C005A" transform="translate(152,58)"/>
<path d="M0 0 C5.36995337 3.57996891 8.9431319 7.81203818 11 14 C12.24928515 22.57591988 11.85589412 29.78294527 6.77734375 36.9765625 C2.12214551 42.27632665 -3.17938047 45.46345844 -10.28125 46.25390625 C-17.98039546 46.62222957 -23.48094552 44.34603632 -29.8125 40.125 C-35.88007808 34.23078129 -37.45501927 28.27088396 -38 20 C-37.75115596 12.53467877 -34.173738 7.20503077 -29 2 C-20.51275182 -4.41848143 -9.32890458 -4.97675903 0 0 Z " fill="#9C005A" transform="translate(161,118)"/>
<path d="M0 0 C5.30078543 3.05103347 10.23497782 8.22393393 12.15234375 14.1171875 C13.4495084 21.41199514 12.80993519 27.34941279 9.21484375 33.890625 C5.74247307 38.52843503 0.95347746 41.34753876 -4.484375 43.16015625 C-11.54705931 43.93781644 -17.48039182 43.0862791 -23.484375 39.16015625 C-28.18426397 34.91314737 -31.07933208 30.49003542 -31.85546875 24.109375 C-32.0053775 16.74621002 -31.53139761 11.72110544 -26.484375 6.16015625 C-19.15014948 -1.15531166 -10.07462949 -3.40573167 0 0 Z M-21.859375 12.78515625 C-23.93515961 17.09640121 -24.1984301 20.45784215 -23.484375 25.16015625 C-21.73669515 29.29939801 -19.29032954 31.79200676 -15.484375 34.16015625 C-9.4661587 35.61617632 -6.00329843 35.34415054 -0.484375 32.16015625 C3.38629885 28.69692175 4.26717363 25.38795924 4.6171875 20.37109375 C4.41276672 15.92101056 2.34266813 13.11642487 -0.484375 9.84765625 C-3.85929076 7.00007108 -7.10658212 6.86996739 -11.42578125 6.94921875 C-16.09318575 7.42747272 -18.77833635 9.37979774 -21.859375 12.78515625 Z " fill="#9A0054" transform="translate(83.484375,64.83984375)"/>
</svg>
